<?xml version="1.0" encoding="UTF-8"?>
<svg viewBox="0 0 184.94989 270.24164" xmlns="http://www.w3.org/2000/svg" xmlns:xlink="http://www.w3.org/1999/xlink">
 <g transform="translate(-158.81 -156.61)">
  <path d="m334.13 393.51c0 13.644-36.77 24.703-82.13 24.703s-82.13-11.06-82.13-24.703 36.771-24.703 82.13-24.703 82.13 11.06 82.13 24.703z" fill="#010101" fill-opacity=".3137"/>
  <g transform="matrix(.87973 0 0 1 29.232 .97949)" fill="#fbb045" stroke="#000" stroke-width="3.9082">
   <path d="m228.07 384.02c-1.639 2.6558-6.8552 6.1791-23.392 5.5302l-8.1981 22.13c0.28385 9.5959 25.086 10.222 26.983 10.255 1.9661 0.47181 26.016 6.0402 28.693-3.1507l-2.378-23.48c-16.172-3.5252-20.373-8.25-21.292-11.232l-0.12688-0.50983z"/>
   <path d="m278.18 384.02c1.639 2.6558 6.8552 6.1791 23.392 5.5302l8.1981 22.13c-0.28385 9.5959-25.086 10.222-26.983 10.255-1.9661 0.47181-26.016 6.0402-28.693-3.1507l2.378-23.48c16.172-3.5252 20.373-8.25 21.292-11.232l0.12688-0.50983z"/>
  </g>
  <path d="m326.35 332.72c0.012 41.071-33.279 74.372-74.349 74.372s-74.362-33.301-74.349-74.372c-0.013-41.07 33.278-74.371 74.349-74.371s74.361 33.301 74.349 74.371z" fill="#bdb76b" stroke="#010101" stroke-linecap="round" stroke-linejoin="round" stroke-width="4"/>
  <path d="m321.853,307.214c.052,1.142.085,2.304.085,3.457 0,41.042-33.305,74.347-74.345,74.347-32.081,0-59.454-20.362-69.871-48.851 1.801,39.445 34.396,70.91 74.283,70.91 41.039,0 74.345-33.305 74.345-74.346 0-8.96-1.587-17.559-4.497-25.517z" fill="#010101" fill-opacity=".3137"/>
  <g transform="matrix(.86763 -.4972 .4972 .86763 -400.37 150.82)">
   <path d="m521.82 462.84c-32.656 11.743 9.613 63.9-25.67 109.41-6.522 8.412 39.278 1.419 55.47-45.195 15.746-45.332 0.769-72.994-29.8-64.216z" fill="#daa520" stroke="#010101" stroke-width="4"/>
   <path d="m532.515,461.215c-.28,0-.564.014-.849.021 11.004,8.867 15.661,29.388 10.033,57.928-7.482,37.939-36.366,54.307-45.965,55.171 3.116,4.43 41.384-5.516 55.892-47.28 13.778-39.665 4.018-65.806-19.111-65.84z" fill="#010101" fill-opacity=".3137"/>
  </g>
  <g transform="matrix(.91424 .40517 -.40517 .91424 21.917 -301.48)">
   <path d="m415.63 462.84c32.656 11.743-9.613 63.9 25.67 109.41 6.522 8.412-39.278 1.419-55.47-45.195-15.746-45.332-0.769-72.994 29.8-64.216z" fill="#daa520" stroke="#010101" stroke-width="4"/>
   <path d="m380.9 483.74c-2.343 11.204-0.882 26.25 5.281 43.992 16.192 46.614 61.989 53.613 55.468 45.201-2.789-3.597-5.104-7.245-7-10.902-12.863-3.082-36.686-16.546-47.45-47.534-3.99-11.489-6.009-21.844-6.299-30.757z" fill="#010101" fill-opacity=".3137"/>
  </g>
  <path d="m216.34 282.93c16.63-25.727 13.575-87.379 13.575-87.379l40.726-2.218s-1.019 62.097 15.95 88.267" fill="#ffd700" stroke="#010101" stroke-linecap="round" stroke-linejoin="round" stroke-width="4"/>
  <path transform="translate(-216.73 -178.06)" d="m502.55 462.7a34.108 11.539 0 1 0 -68.216 0 34.108 11.539 0 1 0 68.216 0" fill="#ffd700"/>
  <path d="m270.633,193.328-11.645.636-29.081,1.591c0,0 .164,3.295.213,8.527 8.932,5.604 17.933,8.867 24.244,8.867 2.259,0 4.823-.389 7.572-1.125 4.199,22.631 11.992,54.534 24.456,69.574l-.679.232 .87-.021c-11.68-18.012-14.82-53.047-15.654-73.137-.094-2.275-.166-4.369-.212-6.215-.035-1.476-.052-2.781-.063-3.924-.012-.921-.019-1.613-.021-2.291-.004-1.052-.004-1.187 0-1.633 .002-.708 0-1.081 0-1.081z" fill="#010101" fill-opacity=".3137"/>
  <path d="m284.75 168.47c-8.836-6.217-20.052-9.864-33.225-9.864-11.985 0-22.209 2.85-30.503 7.799-9.486 6.557-17.105 16.083-21.778 27.396-2.153 6.305-3.271 13.17-3.271 20.357 0 30.663 38.096 55.552 55.552 55.552 18.135 0 55.552-24.889 55.552-55.552 0-7.406-1.242-14.472-3.599-20.934-4.212-9.928-10.7-18.452-18.728-24.754z" fill="#008000" stroke="#010101" stroke-linecap="round" stroke-linejoin="round" stroke-width="4"/>
  <path d="m302.51 187.74c1.191 5.181 1.782 10.672 1.782 16.375 0 30.663-37.418 55.553-55.552 55.553-14.055 0-41.471-16.125-51.629-38.414 5.169 27.318 38.807 48.447 54.896 48.447 18.133 0 55.552-24.89 55.552-55.552 0-9.558-1.639-18.553-5.049-26.409z" fill="#010101" fill-opacity=".3137"/>
  <path d="m233.96 174.58c-12.521 0-22.688 11.756-22.688 26.242 0 14.485 10.167 26.241 22.688 26.241 7.355 0 13.885-4.063 18.029-10.353 4.145 6.293 10.687 10.353 18.047 10.353 12.519 0 22.688-11.756 22.688-26.241 0-14.486-10.169-26.242-22.688-26.242-7.358 0-13.902 4.061-18.047 10.353-4.144-6.286-10.673-10.353-18.029-10.353z" stroke="#010101" stroke-linecap="round" stroke-width="4"/>
  <path d="m252.26 218.16c-1.2897 2.8419-6.018 6.9971-22.504 8.4467l-5.331 22.99c1.4962 9.4828 26.178 6.9639 28.064 6.7574 2.01 0.21914 26.572 2.6985 28.064-6.7574l-5.331-22.99c-16.488-1.4498-21.253-5.6048-22.542-8.4467l-0.19039-0.48966z" fill="#fbb045" stroke="#000" stroke-width="3.9082"/>
  <g transform="translate(0 64.904)">
   <path d="m236.6 113.51c-10.689 0-19.371 10.037-19.371 22.405s8.682 22.405 19.371 22.405c6.281 0 11.855-3.47 15.394-8.839 3.539 5.374 9.125 8.839 15.409 8.839 10.688 0 19.371-10.037 19.371-22.405s-8.683-22.405-19.371-22.405c-6.283 0-11.87 3.467-15.409 8.839-3.538-5.367-9.114-8.839-15.394-8.839z" fill="#fff" stroke="#010101" stroke-linecap="round" stroke-width="4"/>
   <path d="m250.77 137.43c0 3.097-2.511 5.607-5.607 5.607s-5.608-2.511-5.608-5.607 2.511-5.608 5.608-5.608 5.607 2.51 5.607 5.608z" fill="#010101" stroke="#010101" stroke-linecap="round" stroke-width="4"/>
   <path d="m244.59,135.468c0,.803-.65,1.454-1.454,1.454s-1.454-.651-1.454-1.454 .651-1.455 1.454-1.455 1.454.651 1.454,1.455z" fill="#fff"/>
   <path d="m264.97 137.43c0 3.097-2.511 5.607-5.607 5.607s-5.608-2.511-5.608-5.607 2.511-5.608 5.608-5.608 5.607 2.51 5.607 5.608z" fill="#010101" stroke="#010101" stroke-linecap="round" stroke-width="4"/>
   <path d="m258.792,135.468c0,.803-.65,1.454-1.454,1.454s-1.454-.651-1.454-1.454 .65-1.455 1.454-1.455 1.454.651 1.454,1.455z" fill="#fff"/>
  </g>
 </g>
</svg>
