<?xml version="1.0" encoding="UTF-8"?>
<svg viewBox="0 0 369.43045 370.10245" xmlns="http://www.w3.org/2000/svg" xmlns:xlink="http://www.w3.org/1999/xlink">
 <defs>
  <linearGradient id="a">
   <stop stop-color="#fff" offset="0"/>
   <stop stop-color="#fff" stop-opacity="0" offset="1"/>
  </linearGradient>
  <linearGradient id="b">
   <stop stop-color="#707070" offset="0"/>
   <stop offset="1"/>
  </linearGradient>
  <linearGradient id="m" x1="346.24" x2="359.47" gradientUnits="userSpaceOnUse">
   <stop stop-color="#ffb142" offset="0"/>
   <stop stop-color="#c87600" offset="1"/>
  </linearGradient>
  <linearGradient id="l" x2="0" y1="496.28" y2="543.32" gradientUnits="userSpaceOnUse" xlink:href="#a"/>
  <linearGradient id="k" x1="215.66" x2="196.24" y1="477.26" y2="549.75" gradientUnits="userSpaceOnUse" xlink:href="#a"/>
  <linearGradient id="j" x1="215.66" x2="197.11" y1="477.26" y2="546.5" gradientTransform="matrix(-1 0 0 1 711.11 0)" gradientUnits="userSpaceOnUse" xlink:href="#a"/>
  <linearGradient id="i" x2="0" y1="697.36" y2="733.47" gradientUnits="userSpaceOnUse" xlink:href="#a"/>
  <linearGradient id="h" x2="0" y1="13.47" y2="131.29" gradientUnits="userSpaceOnUse" xlink:href="#a"/>
  <radialGradient id="d" cx="414.68" cy="-8.8805" r="123.55" gradientTransform="matrix(-5.8291e-6 .89419 -1.9479 1.1251e-8 336.39 255.17)" gradientUnits="userSpaceOnUse">
   <stop stop-color="#ffb142" offset="0"/>
   <stop stop-color="#ffb141" offset=".88679"/>
   <stop stop-color="#c87600" offset="1"/>
  </radialGradient>
  <radialGradient id="f" cx="488.95" cy="582.85" r="167.56" gradientTransform="matrix(0 -1.4798 1.3255 -3.8491e-6 -461.83 1155.7)" gradientUnits="userSpaceOnUse" xlink:href="#b"/>
  <radialGradient id="e" cx="355.12" cy="615.6" r="59.255" gradientTransform="matrix(-2.8422e-8 -2.2818 2.0268 0 -1051.3 1276.7)" gradientUnits="userSpaceOnUse" xlink:href="#b"/>
  <radialGradient id="c" cx="347.68" cy="652.28" r="59.255" gradientTransform="matrix(2.8422e-8 -2.2818 -2.0268 0 1762.1 1276.7)" gradientUnits="userSpaceOnUse" xlink:href="#b"/>
  <radialGradient id="g" cx="327.36" cy="536.2" r="73.027" gradientTransform="matrix(-4.2195e-6 1.4925 -1.8824 6.5992e-7 1357.2 58.531)" gradientUnits="userSpaceOnUse" xlink:href="#a"/>
 </defs>
 <g transform="translate(-170.66 -366.2)">
  <path d="m318.91 673.34c-48.083 4.9497-103.23 43.858-81.312 52.344s85.542 12.024 97.562 2.125c6.177-5.087 17.229-17.827 18.531-29.781 1.3042 11.953 12.324 24.695 18.5 29.781 12.021 9.8995 75.673 6.3603 97.594-2.125s-33.229-47.394-81.312-52.344c-24.76 2.3865-33.666 10.706-34.781 20.25-1.1158-9.5442-10.021-17.864-34.781-20.25z" fill="url(#d)" fill-rule="evenodd" stroke="#000" stroke-width="5"/>
  <path transform="translate(170.66 366.2)" d="m148.25 307.16c-23.6 2.4294-48.881 13.04-65.938 24.219 25.832 11.947 57.418 19.309 91.656 20.156 4.3873-5.7724 8.3176-12.85 9.0625-19.688 0.73903 6.7733 4.5772 13.788 8.9062 19.531 33.676-1.4258 64.607-9.1457 89.781-21.312-16.995-10.691-41.222-20.571-63.906-22.906-24.76 2.3865-33.666 10.706-34.781 20.25-1.1158-9.5442-10.021-17.864-34.781-20.25z" fill-opacity=".31373" fill-rule="evenodd"/>
  <path d="m516.84 534.27a165.56 165.56 0 1 1 -331.13 0 165.56 165.56 0 1 1 331.13 0z" fill="url(#f)" stroke="#000" stroke-linecap="round" stroke-width="5"/>
  <path d="m317.28 424.09c-22.935 0-41.562 21.434-41.562 47.844s18.628 47.844 41.562 47.844c13.478 0 25.439-7.4105 33.031-18.875 7.5922 11.473 19.579 18.875 33.062 18.875 22.935 0 41.562-21.434 41.562-47.844s-18.628-47.844-41.562-47.844c-13.482 0-25.47 7.4045-33.062 18.875-7.5928-11.462-19.555-18.875-33.031-18.875z" fill="#fff" stroke="#000" stroke-linecap="round" stroke-width="5"/>
  <path transform="matrix(1.1333 0 0 1.1333 -41.339 -43.746)" d="m418.63 583.05a70.821 70.821 0 1 1 -141.64 0 70.821 70.821 0 1 1 141.64 0z" fill="url(#g)" stroke="#000" stroke-linecap="round" stroke-width="4.4118"/>
  <path d="m352.3 506.61c-14.479 0-30.217 13.186-29.588 21.514s25.81 43.029 31.476 43.029 27.699-34.006 27.069-43.723-19.515-21.514-28.958-20.82z" fill-opacity=".31373" fill-rule="evenodd"/>
  <path d="m350.01 498.27c-14.479 0-30.217 11.961-29.588 19.515s25.81 39.03 31.476 39.03 27.699-30.847 27.069-39.66-19.515-19.515-28.958-18.886z" fill="url(#m)" fill-rule="evenodd" stroke="#000" stroke-width="5"/>
  <path transform="translate(2.4773 -7)" d="m340.57 487.37a10.387 10.387 0 1 1 -20.774 0 10.387 10.387 0 1 1 20.774 0z" stroke="#000" stroke-linecap="round" stroke-width="5"/>
  <path transform="translate(39.66 -7)" d="m340.57 487.37a10.387 10.387 0 1 1 -20.774 0 10.387 10.387 0 1 1 20.774 0z" stroke="#000" stroke-linecap="round" stroke-width="5"/>
  <path d="m226.4 497.25c48.111 17.3-14.163 94.143 37.819 161.19 9.6084 12.393-57.868 2.0908-81.723-66.585-23.198-66.786-1.1324-107.54 43.904-94.607z" fill="#fff" fill-rule="evenodd" stroke="#000" stroke-width="5"/>
  <path d="m226.4 497.25c48.111 17.3-42.588 102.12 37.819 161.19 22.626 16.622-57.868 2.0908-81.723-66.585-23.198-66.786-1.1324-107.54 43.904-94.607z" fill="url(#e)" fill-rule="evenodd" stroke="#000" stroke-width="5"/>
  <path d="m484.36 497.25c-48.111 17.3 14.163 94.143-37.819 161.19-9.6084 12.393 57.868 2.0908 81.723-66.585 23.198-66.786 1.1324-107.54-43.904-94.607z" fill="#fff" fill-rule="evenodd" stroke="#000" stroke-width="5"/>
  <path d="m484.36 497.25c-48.111 17.3 42.588 102.12-37.819 161.19-22.626 16.622 57.868 2.0908 81.723-66.585 23.198-66.786 1.1324-107.54-43.904-94.607z" fill="url(#c)" fill-rule="evenodd" stroke="#000" stroke-width="5"/>
  <path d="m349.28 502.34c-9.6971 0.80056-21.723 5.3357-24.375 15.594 3.8154 11.309 13.209 19.393 20.156 28.688 2.3911 2.5954 6.7302 7.6829 9.7188 3.1875 8.822-8.6167 15.667-19.556 19.875-31.094-1.2971-9.2206-11.566-13.032-19.281-15.656-2.0022-0.48667-4.0003-0.85528-6.0938-0.71875z" fill="url(#l)" fill-rule="evenodd"/>
  <path d="m207.28 498.94c-17.877 1.0268-29.677 19.352-29.531 36.156-2.342 29.357 6.8359 59.095 23.219 83.312 14.129 19.414 34.464 34.706 57.75 41.125-19.648-14.933-33.177-38.324-33.37-63.375-1.2622-25.993 9.8358-50.376 11.995-75.907 1.0364-8.877-4.5378-17.579-13.344-19.594-5.4079-1.6477-11.068-1.8873-16.719-1.7188z" fill="url(#k)" fill-rule="evenodd"/>
  <path d="m503.83 498.94c17.877 1.0268 29.677 19.352 29.531 36.156 2.342 29.357-6.8359 59.095-23.219 83.312-14.129 19.414-34.464 34.706-57.75 41.125 19.648-14.933 33.177-38.324 33.37-63.375 1.2622-25.993-9.8358-50.376-11.995-75.907-1.0364-8.877 4.5378-17.579 13.344-19.594 5.4079-1.6477 11.068-1.8873 16.719-1.7188z" fill="url(#j)" fill-rule="evenodd"/>
  <path d="m451.75 699.88c-26.043 12.227-54.772 18.436-83.281 20.5 10.017 11.96 27.098 9.498 41.094 10.406 20.445-0.03133 41.444-1.9691 60.688-8.5938 3.9255-3.6998-1.5449-8.378-3.875-11.312-4.2025-4.1872-9.4696-8.4958-14.625-11zm-199.59 2.0312c-6.257 4.9975-15.698 9.751-16.094 18.781 4.5425 5.2212 12.422 4.0752 18.483 6.1812 24.918 4.0456 51.304 6.646 75.985 0.19384 3.0834-1.5587 5.7495-4.0241 8-6.5625-29.271-1.3383-58.492-7.4814-85.219-19.5l-0.78706 0.61688-0.36919 0.28937z" fill="url(#i)" fill-rule="evenodd"/>
  <path transform="matrix(.99631 0 0 .99631 177.31 341.53)" d="m268 90.102a93.5 58 0 1 1 -187 0 93.5 58 0 1 1 187 0z" fill="url(#h)"/>
 </g>
</svg>
